<svg width="28" height="28" viewBox="0 0 48 48" fill="none" xmlns="http://www.w3.org/2000/svg">
<path d="M43.617 20.9796C42.4065 20.9796 32.3542 22.1293 27.0225 22.7516C31.2309 19.4201 39.1506 13.1251 40.012 12.2675C42.7063 9.56964 41.7728 7.82798 40.9759 7.03115C39.6553 5.71067 37.7314 5.99905 35.7391 7.99494C34.8815 8.85249 28.586 16.7715 25.2542 20.9796C25.8727 15.6484 27.0263 5.59684 27.0263 4.3864C27.0263 0.56917 25.1327 0 24.0057 0C22.8786 0 20.9851 0.56917 20.9851 4.3864C20.9851 5.59684 22.1349 15.6522 22.7534 20.9796C19.4216 16.7715 13.1261 8.85249 12.2685 7.99494C10.2724 5.99905 8.35228 5.71067 7.0317 7.03115C6.21962 7.84316 6.00332 8.90561 6.42074 10.0212C6.68638 10.7308 7.21764 11.4859 7.99557 12.2675C8.85319 13.1251 16.7729 19.4163 20.9813 22.7478C15.6496 22.1293 5.59728 20.9758 4.38295 20.9758C0.569215 20.9796 0 22.873 0 24C0 25.127 0.569215 27.0204 4.38295 27.0204C5.59728 27.0204 15.6458 25.8707 20.9775 25.2522C16.7691 28.5837 8.84939 34.8787 7.99178 35.7363C7.21385 36.5141 6.68258 37.2692 6.41695 37.9788C5.99573 39.0982 6.21583 40.1606 7.02791 40.9689C7.56676 41.5039 8.22326 41.7923 8.92908 41.7923C9.96126 41.7923 11.0807 41.1927 12.2647 40.0089C13.1223 39.1513 19.4178 31.2285 22.7496 27.0204C22.1311 32.3516 20.9813 42.4032 20.9813 43.6174C20.9813 47.4308 22.8748 48 24.0019 48C25.1289 48 27.0225 47.4308 27.0225 43.6174C27.0225 42.4032 25.8727 32.3554 25.2504 27.0242C28.5822 31.2323 34.8777 39.1513 35.7353 40.0089C36.9193 41.1927 38.0425 41.7923 39.0747 41.7923C39.7805 41.7923 40.437 41.5077 40.9721 40.9689C41.769 40.172 42.7063 38.4304 40.0082 35.7325C39.1506 34.8749 31.2309 28.5799 27.0187 25.2484C32.3504 25.8669 42.4027 27.0166 43.6132 27.0166C47.4308 27.0166 48 25.127 48 23.9962C48.0038 22.873 47.4346 20.9796 43.617 20.9796V20.9796Z" fill="black"/>
</svg>
