<svg width="20" height="16" viewBox="0 0 35 28" fill="none" xmlns="http://www.w3.org/2000/svg">
<path d="M35 8.064V22.3125C35.0001 23.7652 34.4443 25.163 33.4466 26.2189C32.4489 27.2749 31.0849 27.909 29.6345 27.9913L29.3125 28H5.6875C4.23476 28.0001 2.83705 27.4443 1.7811 26.4466C0.725142 25.4489 0.0909977 24.0849 0.0087502 22.6345L0 22.3125V8.064L16.891 16.912C17.0789 17.0104 17.2879 17.0618 17.5 17.0618C17.7121 17.0618 17.9211 17.0104 18.109 16.912L35 8.064ZM5.6875 4.13089e-08H29.3125C30.7223 -0.000169776 32.0819 0.523242 33.1276 1.46872C34.1733 2.41419 34.8306 3.71434 34.972 5.117L17.5 14.2695L0.0280001 5.117C0.163666 3.77005 0.775337 2.51566 1.75306 1.57931C2.73079 0.642965 4.01044 0.0860772 5.362 0.00875024L5.6875 4.13089e-08H29.3125H5.6875Z" fill="black"/>
</svg>
