<svg width="80" height="22" viewBox="0 0 300 81" fill="none" xmlns="http://www.w3.org/2000/svg">
<path d="M199.603 0V58.7107C206.845 59.0476 214.068 59.4548 221.271 59.9353V72.3831C209.847 71.6213 198.411 71.0434 186.969 70.6494V0H199.603V0ZM299.999 0.00703101L283.548 38.1468L299.995 80.5895L299.977 80.5971C295.181 79.9148 290.381 79.2658 285.577 78.6501L276.341 54.829L267.017 76.4388C262.593 75.9501 258.167 75.4892 253.738 75.0561L269.776 37.8913L255.088 0.00761693H268.755L276.979 21.2085L286.123 0.00703101H299.999ZM143.609 70.0324V0.00644509H178.876V12.5662H156.242V28.843H173.368V41.2908H156.242V70.0301L143.609 70.0324V70.0324ZM96.433 12.5668V0.00585918H135.509V12.5662H122.287V70.3728C118.07 70.4841 113.858 70.6142 109.655 70.773V12.5668H96.433ZM53.2425 74.3916V0.00820285H88.3342V12.5673H65.8747V29.5801C71.0344 29.5138 78.371 29.4394 82.9354 29.45V41.899C77.2219 41.8287 70.7725 41.9775 65.8747 42.0261V60.8716C73.3557 60.2821 80.8426 59.7703 88.3342 59.3365V71.7855C76.6234 72.461 64.9245 73.3303 53.2425 74.3928V74.3916ZM28.4591 45.616L28.4585 0.00585918H41.0925V75.5658C36.4742 76.0404 31.864 76.546 27.2626 77.0798L12.6324 35.0519V78.8798C8.41791 79.4282 4.20671 80.0016 -0.000976562 80.6V0.00703101H12.0054L28.4585 45.616H28.4591ZM231.693 73.1337V0.00703101H244.328V74.1772C240.122 73.8022 235.912 73.4565 231.693 73.1342V73.1337Z" fill="black"/>
</svg>
